<svg width="18" height="30" viewBox="0 0 18 30" fill="none" xmlns="http://www.w3.org/2000/svg">
<path d="M1.20001 29.1333C0.711118 28.6444 0.466675 28.0222 0.466675 27.2666C0.466675 26.5111 0.711118 25.8889 1.20001 25.4L11.6 15L1.20001 4.59997C0.711118 4.11108 0.466675 3.48886 0.466675 2.7333C0.466675 1.97775 0.711118 1.35552 1.20001 0.866633C1.6889 0.377744 2.31112 0.133301 3.06667 0.133301C3.82223 0.133301 4.44445 0.377744 4.93334 0.866633L17.2 13.1333C17.4667 13.4 17.656 13.6889 17.768 14C17.8782 14.3111 17.9333 14.6444 17.9333 15C17.9333 15.3555 17.8782 15.6889 17.768 16C17.656 16.3111 17.4667 16.6 17.2 16.8666L4.93334 29.1333C4.44445 29.6222 3.82223 29.8666 3.06667 29.8666C2.31112 29.8666 1.6889 29.6222 1.20001 29.1333Z" fill="#FAFAFA"/>
</svg>
