<svg width="28" height="32" viewBox="0 0 28 32" fill="none" xmlns="http://www.w3.org/2000/svg">
<path d="M14.0001 16.4375C13.6668 16.4375 13.3543 16.385 13.0626 16.28C12.7709 16.1766 12.5001 16 12.2501 15.75L0.750099 4.24996C0.291766 3.79163 0.0525998 3.2183 0.0325998 2.52996C0.0109332 1.8433 0.250099 1.24996 0.750099 0.749963C1.20843 0.291629 1.79177 0.0624625 2.5001 0.0624625C3.20843 0.0624625 3.79177 0.291629 4.2501 0.749963L14.0001 10.4375L23.7501 0.749963C24.2084 0.291629 24.7809 0.0516291 25.4676 0.0299624C26.1559 0.00996244 26.7501 0.249963 27.2501 0.749963C27.7084 1.2083 27.9376 1.79163 27.9376 2.49996C27.9376 3.2083 27.7084 3.79163 27.2501 4.24996L15.7501 15.75C15.5001 16 15.2293 16.1766 14.9376 16.28C14.6459 16.385 14.3334 16.4375 14.0001 16.4375ZM14.0001 31.4375C13.6668 31.4375 13.3543 31.385 13.0626 31.28C12.7709 31.1766 12.5001 31 12.2501 30.75L0.750099 19.25C0.291766 18.7916 0.0525998 18.2183 0.0325998 17.53C0.0109332 16.8433 0.250099 16.25 0.750099 15.75C1.20843 15.2916 1.79177 15.0625 2.5001 15.0625C3.20843 15.0625 3.79177 15.2916 4.2501 15.75L14.0001 25.4375L23.7501 15.75C24.2084 15.2916 24.7809 15.0516 25.4676 15.03C26.1559 15.01 26.7501 15.25 27.2501 15.75C27.7084 16.2083 27.9376 16.7916 27.9376 17.5C27.9376 18.2083 27.7084 18.7916 27.2501 19.25L15.7501 30.75C15.5001 31 15.2293 31.1766 14.9376 31.28C14.6459 31.385 14.3334 31.4375 14.0001 31.4375Z" fill="#E3E3E3"/>
</svg>
