<svg width="43" height="33" viewBox="0 0 43 33" fill="none" xmlns="http://www.w3.org/2000/svg">
<path d="M35.54 2.66009C32.88 1.42009 30 0.520092 27 9.19964e-05C26.9737 -0.00074921 26.9475 0.00418695 26.9233 0.0145535C26.8991 0.0249201 26.8775 0.0404653 26.86 0.0600924C26.5 0.720092 26.08 1.58009 25.8 2.24009C22.618 1.76009 19.382 1.76009 16.2 2.24009C15.92 1.56009 15.5 0.720092 15.12 0.0600924C15.1 0.0200924 15.04 9.19964e-05 14.98 9.19964e-05C11.98 0.520092 9.11999 1.42009 6.43999 2.66009C6.41999 2.66009 6.39999 2.68009 6.37999 2.70009C0.939991 10.8401 -0.56001 18.7601 0.17999 26.6001C0.17999 26.6401 0.19999 26.6801 0.23999 26.7001C3.83999 29.3401 7.29999 30.9401 10.72 32.0001C10.78 32.0201 10.84 32.0001 10.86 31.9601C11.66 30.8601 12.38 29.7001 13 28.4801C13.04 28.4001 13 28.3201 12.92 28.3001C11.78 27.8601 10.7 27.3401 9.63999 26.7401C9.55999 26.7001 9.55999 26.5801 9.61999 26.5201C9.83999 26.3601 10.06 26.1801 10.28 26.0201C10.32 25.9801 10.38 25.9801 10.42 26.0001C17.3 29.1401 24.72 29.1401 31.52 26.0001C31.56 25.9801 31.62 25.9801 31.66 26.0201C31.88 26.2001 32.1 26.3601 32.32 26.5401C32.4 26.6001 32.4 26.7201 32.3 26.7601C31.26 27.3801 30.16 27.8801 29.02 28.3201C28.94 28.3401 28.92 28.4401 28.94 28.5001C29.58 29.7201 30.3 30.8801 31.08 31.9801C31.14 32.0001 31.2 32.0201 31.26 32.0001C34.7 30.9401 38.16 29.3401 41.76 26.7001C41.8 26.6801 41.82 26.6401 41.82 26.6001C42.7 17.5401 40.36 9.68009 35.62 2.70009C35.6 2.68009 35.58 2.66009 35.54 2.66009ZM14.04 21.8201C11.98 21.8201 10.26 19.9201 10.26 17.5801C10.26 15.2401 11.94 13.3401 14.04 13.3401C16.16 13.3401 17.84 15.2601 17.82 17.5801C17.82 19.9201 16.14 21.8201 14.04 21.8201ZM27.98 21.8201C25.92 21.8201 24.2 19.9201 24.2 17.5801C24.2 15.2401 25.88 13.3401 27.98 13.3401C30.1 13.3401 31.78 15.2601 31.76 17.5801C31.76 19.9201 30.1 21.8201 27.98 21.8201Z" fill="black"/>
</svg>
