<svg width="48" height="59" viewBox="0 0 48 59" fill="none" xmlns="http://www.w3.org/2000/svg">
<path d="M21.1418 31.5197L17.1229 27.4278C16.5383 26.8432 15.8447 26.5509 15.0419 26.5509C14.2371 26.5509 13.5425 26.8432 12.9579 27.4278C12.3733 28.0123 12.0694 28.706 12.046 29.5088C12.0206 30.3135 12.3003 31.0082 12.8848 31.5928L19.0958 37.8037C19.6804 38.3883 20.3623 38.6806 21.1418 38.6806C21.9212 38.6806 22.6032 38.3883 23.1877 37.8037L35.6096 25.3818C36.1942 24.7972 36.4865 24.1026 36.4865 23.2978C36.4865 22.495 36.1942 21.8014 35.6096 21.2168C35.0251 20.6322 34.3314 20.34 33.5286 20.34C32.7239 20.34 32.0292 20.6322 31.4446 21.2168L21.1418 31.5197ZM24.2107 58.4826H23.48C23.2364 58.4826 23.0172 58.4339 22.8224 58.3364C16.4409 56.3392 11.1799 52.3807 7.03921 46.4611C2.89857 40.5434 0.828247 34.0041 0.828247 26.8432V13.0329C0.828247 11.8151 1.18191 10.7191 1.88923 9.74478C2.5946 8.77051 3.50749 8.06417 4.6279 7.62575L22.1647 1.04943C22.8467 0.805866 23.5287 0.684082 24.2107 0.684082C24.8927 0.684082 25.5747 0.805866 26.2567 1.04943L43.7935 7.62575C44.9139 8.06417 45.8278 8.77051 46.5351 9.74478C47.2405 10.7191 47.5932 11.8151 47.5932 13.0329V26.8432C47.5932 34.0041 45.5228 40.5434 41.3822 46.4611C37.2415 52.3807 31.9805 56.3392 25.599 58.3364C25.3555 58.4339 24.8927 58.4826 24.2107 58.4826ZM24.2107 52.5639C29.2769 50.9564 33.4663 47.7413 36.7788 42.9186C40.0913 38.096 41.7475 32.7375 41.7475 26.8432V13.0329L24.2107 6.45662L6.67386 13.0329V26.8432C6.67386 32.7375 8.33012 38.096 11.6426 42.9186C14.9551 47.7413 19.1445 50.9564 24.2107 52.5639Z" fill="black"/>
</svg>
