<svg width="44" height="54" viewBox="0 0 44 54" fill="none" xmlns="http://www.w3.org/2000/svg">
<path d="M22 36.4551C23.1458 36.4551 24.1193 36.0564 24.9205 35.2591C25.7235 34.4635 26.125 33.4968 26.125 32.359V29.6283H28.875C30.0208 29.6283 30.9943 29.2296 31.7955 28.4323C32.5985 27.6367 33 26.67 33 25.5322C33 24.3944 32.5985 23.4278 31.7955 22.6322C30.9943 21.8348 30.0208 21.4362 28.875 21.4362H26.125V18.7054C26.125 17.5676 25.7235 16.601 24.9205 15.8054C24.1193 15.008 23.1458 14.6094 22 14.6094C20.8542 14.6094 19.8807 15.008 19.0795 15.8054C18.2765 16.601 17.875 17.5676 17.875 18.7054V21.4362H15.125C13.9792 21.4362 13.0057 21.8348 12.2045 22.6322C11.4015 23.4278 11 24.3944 11 25.5322C11 26.67 11.4015 27.6367 12.2045 28.4323C13.0057 29.2296 13.9792 29.6283 15.125 29.6283H17.875V32.359C17.875 33.4968 18.2765 34.4635 19.0795 35.2591C19.8807 36.0564 20.8542 36.4551 22 36.4551ZM22 54H21.3125C21.0833 54 20.8771 53.9545 20.6937 53.8635C14.6896 51.9975 9.73958 48.2992 5.84375 42.7686C1.94792 37.2397 0 31.1302 0 24.44V11.5373C0 10.3995 0.33275 9.37547 0.99825 8.46523C1.66192 7.55499 2.52083 6.89507 3.575 6.48546L20.075 0.34134C20.7167 0.11378 21.3583 0 22 0C22.6417 0 23.2833 0.11378 23.925 0.34134L40.425 6.48546C41.4792 6.89507 42.339 7.55499 43.0045 8.46523C43.6682 9.37547 44 10.3995 44 11.5373V24.44C44 31.1302 42.0521 37.2397 38.1562 42.7686C34.2604 48.2992 29.3104 51.9975 23.3063 53.8635C23.0771 53.9545 22.6417 54 22 54ZM22 48.4703C26.7667 46.9684 30.7083 43.9646 33.825 39.4589C36.9417 34.9532 38.5 29.9469 38.5 24.44V11.5373L22 5.39317L5.5 11.5373V24.44C5.5 29.9469 7.05833 34.9532 10.175 39.4589C13.2917 43.9646 17.2333 46.9684 22 48.4703Z" fill="#121212"/>
</svg>
